<svg xmlns:xlink="http://www.w3.org/1999/xlink" xmlns="http://www.w3.org/2000/svg" width="170px" height="721px" viewBox="0 0 170 721" style="overflow: hidden; display: block; width: 170px; height: 721px;"><defs><path fill="rgb(51,102,153)" stroke="rgb(51,102,153)" d="M 5,-5 L 0,0 L 5,5 Z" fill-opacity="1" stroke-opacity="1" stroke-width="1" stroke-linecap="butt" stroke-linejoin="miter" stroke-miterlimit="10" id="ygc324_0"/></defs><g style="pointer-events:visiblePainted" transform="translate(-1014.75 212.25)" image-rendering="auto" shape-rendering="auto"><g><path fill="none" stroke="rgb(51,102,153)" d="M 1095.625,-162.25 L 1095.625,-145" stroke-opacity="1" stroke-width="1" stroke-linecap="butt" stroke-linejoin="miter" stroke-miterlimit="10"/><use xlink:href="#ygc324_0" transform="matrix(0 -0.75 0.75 0 1095.63 -141.78)" style="pointer-events: none;"/></g><g><path fill="none" stroke="rgb(51,102,153)" d="M 1095.625,-110.25 L 1095.625,-94.875" stroke-opacity="1" stroke-width="1" stroke-linecap="butt" stroke-linejoin="miter" stroke-miterlimit="10"/><use xlink:href="#ygc324_0" transform="matrix(0 -0.75 0.75 0 1095.63 -91.6553)" style="pointer-events: none;"/></g><g><path fill="none" stroke="rgb(51,102,153)" d="M 1095.625,-60.125 L 1095.625,-44.75" stroke-opacity="1" stroke-width="1" stroke-linecap="butt" stroke-linejoin="miter" stroke-miterlimit="10"/><use xlink:href="#ygc324_0" transform="matrix(0 -0.75 0.75 0 1095.63 -41.5303)" style="pointer-events: none;"/></g><g><path fill="none" stroke="rgb(51,102,153)" d="M 1095.625,-10 L 1095.625,5.375" stroke-opacity="1" stroke-width="1" stroke-linecap="butt" stroke-linejoin="miter" stroke-miterlimit="10"/><use xlink:href="#ygc324_0" transform="matrix(0 -0.75 0.75 0 1095.63 8.59467)" style="pointer-events: none;"/></g><g><path fill="none" stroke="rgb(51,102,153)" d="M 1095.625,40.125 L 1095.625,55.5" stroke-opacity="1" stroke-width="1" stroke-linecap="butt" stroke-linejoin="miter" stroke-miterlimit="10"/><use xlink:href="#ygc324_0" transform="matrix(0 -0.75 0.75 0 1095.63 58.7197)" style="pointer-events: none;"/></g><g><path fill="none" stroke="rgb(51,102,153)" d="M 1095.625,140.375 L 1095.625,155.75" stroke-opacity="1" stroke-width="1" stroke-linecap="butt" stroke-linejoin="miter" stroke-miterlimit="10"/><use xlink:href="#ygc324_0" transform="matrix(0 -0.75 0.75 0 1095.63 158.97)" style="pointer-events: none;"/></g><g><path fill="none" stroke="rgb(51,102,153)" d="M 1095.625,190.5 L 1095.625,205.875" stroke-opacity="1" stroke-width="1" stroke-linecap="butt" stroke-linejoin="miter" stroke-miterlimit="10"/><use xlink:href="#ygc324_0" transform="matrix(0 -0.75 0.75 0 1095.63 209.095)" style="pointer-events: none;"/></g><g><path fill="none" stroke="rgb(51,102,153)" d="M 1095.625,240.625 L 1095.625,256" stroke-opacity="1" stroke-width="1" stroke-linecap="butt" stroke-linejoin="miter" stroke-miterlimit="10"/><use xlink:href="#ygc324_0" transform="matrix(0 -0.75 0.75 0 1095.63 259.22)" style="pointer-events: none;"/></g><g><path fill="none" stroke="rgb(51,102,153)" d="M 1095.625,290.75 L 1095.625,306.125" stroke-opacity="1" stroke-width="1" stroke-linecap="butt" stroke-linejoin="miter" stroke-miterlimit="10"/><use xlink:href="#ygc324_0" transform="matrix(0 -0.75 0.75 0 1095.63 309.345)" style="pointer-events: none;"/></g><g><path fill="none" stroke="rgb(51,102,153)" d="M 1095.625,352.125 L 1095.625,367.5" stroke-opacity="1" stroke-width="1" stroke-linecap="butt" stroke-linejoin="miter" stroke-miterlimit="10"/><use xlink:href="#ygc324_0" transform="matrix(0 -0.75 0.75 0 1095.63 370.72)" style="pointer-events: none;"/></g><g><path fill="none" stroke="rgb(51,102,153)" d="M 1095.625,452.375 L 1095.625,467" stroke-opacity="1" stroke-width="1" stroke-linecap="butt" stroke-linejoin="miter" stroke-miterlimit="10"/><use xlink:href="#ygc324_0" transform="matrix(0 -0.75 0.75 0 1095.63 470.22)" style="pointer-events: none;"/></g><g><path fill="none" stroke="rgb(51,102,153)" d="M 1095.625,402.25 L 1095.625,417.625" stroke-opacity="1" stroke-width="1" stroke-linecap="butt" stroke-linejoin="miter" stroke-miterlimit="10"/><use xlink:href="#ygc324_0" transform="matrix(0 -0.75 0.75 0 1095.63 420.845)" style="pointer-events: none;"/></g><g><path fill="none" stroke="rgb(51,102,153)" d="M 1095.625,90.25 L 1095.625,105.625" stroke-opacity="1" stroke-width="1" stroke-linecap="butt" stroke-linejoin="miter" stroke-miterlimit="10"/><use xlink:href="#ygc324_0" transform="matrix(0 -0.75 0.75 0 1095.63 108.845)" style="pointer-events: none;"/></g><g><path d="M 1095.625,-162.25 C 1087.342,-162.25 1080.625,-168.96699999999998 1080.625,-177.25 C 1080.625,-185.53300000000002 1087.342,-192.25 1095.625,-192.25 C 1103.908,-192.25 1110.625,-185.53300000000002 1110.625,-177.25 C 1110.625,-168.96699999999998 1103.908,-162.25 1095.625,-162.25 Z" stroke="rgb(255,185,237)" stroke-opacity="1" stroke-width="1" stroke-linecap="butt" stroke-linejoin="miter" stroke-miterlimit="10" fill="rgb(255,185,237)" fill-opacity="1"/></g><g><path d="M 1026.75,-140.25 L 1164.5,-140.25 L 1164.5,-110.25 L 1026.75,-110.25 Z" stroke="rgb(0,0,0)" stroke-opacity="1" stroke-width="1" stroke-linecap="butt" stroke-linejoin="miter" stroke-miterlimit="10" fill="rgb(210,222,238)" fill-opacity="1"/></g><g><path d="M 1026.75,-90.125 L 1164.5,-90.125 L 1164.5,-60.125 L 1026.75,-60.125 Z" stroke="rgb(0,0,0)" stroke-opacity="1" stroke-width="1" stroke-linecap="butt" stroke-linejoin="miter" stroke-miterlimit="10" fill="rgb(210,222,238)" fill-opacity="1"/></g><g><path d="M 1026.75,-40 L 1164.5,-40 L 1164.5,-10 L 1026.75,-10 Z" stroke="rgb(0,0,0)" stroke-opacity="1" stroke-width="1" stroke-linecap="butt" stroke-linejoin="miter" stroke-miterlimit="10" fill="rgb(210,222,238)" fill-opacity="1"/></g><g><path d="M 1026.75,10.125 L 1164.5,10.125 L 1164.5,40.125 L 1026.75,40.125 Z" stroke="rgb(0,0,0)" stroke-opacity="1" stroke-width="1" stroke-linecap="butt" stroke-linejoin="miter" stroke-miterlimit="10" fill="rgb(210,222,238)" fill-opacity="1"/></g><g><path d="M 1026.75,60.25 L 1164.5,60.25 L 1164.5,90.25 L 1026.75,90.25 Z" stroke="rgb(0,0,0)" stroke-opacity="1" stroke-width="1" stroke-linecap="butt" stroke-linejoin="miter" stroke-miterlimit="10" fill="rgb(210,222,238)" fill-opacity="1"/></g><g><path d="M 1026.75,110.375 L 1164.5,110.375 L 1164.5,140.375 L 1026.75,140.375 Z" stroke="rgb(0,0,0)" stroke-opacity="1" stroke-width="1" stroke-linecap="butt" stroke-linejoin="miter" stroke-miterlimit="10" fill="rgb(210,222,238)" fill-opacity="1"/></g><g><path d="M 1026.75,160.5 L 1164.5,160.5 L 1164.5,190.5 L 1026.75,190.5 Z" stroke="rgb(0,0,0)" stroke-opacity="1" stroke-width="1" stroke-linecap="butt" stroke-linejoin="miter" stroke-miterlimit="10" fill="rgb(210,222,238)" fill-opacity="1"/></g><g><path d="M 1026.75,210.625 L 1164.5,210.625 L 1164.5,240.625 L 1026.75,240.625 Z" stroke="rgb(255,218,155)" stroke-opacity="1" stroke-width="1" stroke-linecap="butt" stroke-linejoin="miter" stroke-miterlimit="10" fill="rgb(255,218,155)" fill-opacity="1"/></g><g><path d="M 1026.75,260.75 L 1164.5,260.75 L 1164.5,290.75 L 1026.75,290.75 Z" stroke="rgb(255,218,155)" stroke-opacity="1" stroke-width="1" stroke-linecap="butt" stroke-linejoin="miter" stroke-miterlimit="10" fill="rgb(255,218,155)" fill-opacity="1"/></g><g><path d="M 1026.75,310.875 L 1164.5,310.875 L 1164.5,352.125 L 1026.75,352.125 Z" stroke="rgb(255,218,155)" stroke-opacity="1" stroke-width="1" stroke-linecap="butt" stroke-linejoin="miter" stroke-miterlimit="10" fill="rgb(255,218,155)" fill-opacity="1"/></g><g><path d="M 1026.75,372.25 L 1164.5,372.25 L 1164.5,402.25 L 1026.75,402.25 Z" stroke="rgb(255,218,155)" stroke-opacity="1" stroke-width="1" stroke-linecap="butt" stroke-linejoin="miter" stroke-miterlimit="10" fill="rgb(255,218,155)" fill-opacity="1"/></g><g><path d="M 1026.75,422.375 L 1164.5,422.375 L 1164.5,452.375 L 1026.75,452.375 Z" stroke="rgb(255,218,155)" stroke-opacity="1" stroke-width="1" stroke-linecap="butt" stroke-linejoin="miter" stroke-miterlimit="10" fill="rgb(255,218,155)" fill-opacity="1"/></g><g><path d="M 1095.625,501.75 C 1087.342,501.75 1080.625,495.033 1080.625,486.75 C 1080.625,478.467 1087.342,471.75 1095.625,471.75 C 1103.908,471.75 1110.625,478.467 1110.625,486.75 C 1110.625,495.033 1103.908,501.75 1095.625,501.75 Z" stroke="rgb(255,185,237)" stroke-opacity="1" stroke-width="1" stroke-linecap="butt" stroke-linejoin="miter" stroke-miterlimit="10" fill="rgb(255,185,237)" fill-opacity="1"/></g><g transform="translate(1070.625 -192.25)"><text font-family="Arial" font-size="12px" font-style="normal" font-weight="normal" text-anchor="middle" fill="rgb(0,0,0)" fill-opacity="1" transform="translate(25 8)"><tspan dy="0.9166666666666666em" x="0">Start</tspan></text></g><g transform="translate(1026.75 -140.25)"><text font-family="Arial" font-size="12px" font-style="normal" font-weight="normal" text-anchor="middle" fill="rgb(0,0,0)" fill-opacity="1" transform="translate(68.875 8)"><tspan dy="0.9166666666666666em" x="0">Collect data from device</tspan></text></g><g transform="translate(1026.75 -90.125)"><text font-family="Arial" font-size="12px" font-style="normal" font-weight="normal" text-anchor="middle" fill="rgb(0,0,0)" fill-opacity="1" transform="translate(68.875 8)"><tspan dy="0.9166666666666666em" x="0">Persist device data</tspan></text></g><g transform="translate(1026.75 -40)"><text font-family="Arial" font-size="12px" font-style="normal" font-weight="normal" text-anchor="middle" fill="rgb(0,0,0)" fill-opacity="1" transform="translate(68.875 8)"><tspan dy="0.9166666666666666em" x="0">Collect from IndexedDB</tspan></text></g><g transform="translate(1026.75 10.125)"><text font-family="Arial" font-size="12px" font-style="normal" font-weight="normal" text-anchor="middle" fill="rgb(0,0,0)" fill-opacity="1" transform="translate(68.875 8)"><tspan dy="0.9166666666666666em" x="0">Combine to json</tspan></text></g><g transform="translate(1026.75 60.25)"><text font-family="Arial" font-size="12px" font-style="normal" font-weight="normal" text-anchor="middle" fill="rgb(0,0,0)" fill-opacity="1" transform="translate(68.875 8)"><tspan dy="0.9166666666666666em" x="0">Chunk json data into</tspan></text></g><g transform="translate(1026.75 110.375)"><text font-family="Arial" font-size="12px" font-style="normal" font-weight="normal" text-anchor="middle" fill="rgb(0,0,0)" fill-opacity="1" transform="translate(68.875 8)"><tspan dy="0.9166666666666666em" x="0">Encrypt chunks</tspan></text></g><g transform="translate(1026.75 160.5)"><text font-family="Arial" font-size="12px" font-style="normal" font-weight="normal" text-anchor="middle" fill="rgb(0,0,0)" fill-opacity="1" transform="translate(68.875 8)"><tspan dy="0.9166666666666666em" x="0">Send data to server</tspan></text></g><g transform="translate(1026.75 210.625)"><text font-family="Arial" font-size="12px" font-style="normal" font-weight="normal" text-anchor="middle" fill="rgb(0,0,0)" fill-opacity="1" transform="translate(68.875 8)"><tspan dy="0.9166666666666666em" x="0">Parse JSON chunks</tspan></text></g><g transform="translate(1026.75 260.75)"><text font-family="Arial" font-size="12px" font-style="normal" font-weight="normal" text-anchor="middle" fill="rgb(0,0,0)" fill-opacity="1" transform="translate(68.875 8)"><tspan dy="0.9166666666666666em" x="0">Decrypt chunks</tspan></text></g><g transform="translate(1026.75 310.875)"><text font-family="Arial" font-size="12px" font-style="normal" font-weight="normal" text-anchor="middle" fill="rgb(0,0,0)" fill-opacity="1" transform="translate(68.875 4.625)"><tspan dy="0.9166666666666666em" x="0">Combine blocks to json</tspan><tspan dy="1.5em" x="0">report</tspan></text></g><g transform="translate(1026.75 372.25)"><text font-family="Arial" font-size="12px" font-style="normal" font-weight="normal" text-anchor="middle" fill="rgb(0,0,0)" fill-opacity="1" transform="translate(68.875 8)"><tspan dy="0.9166666666666666em" x="0">Parse JSON report</tspan></text></g><g transform="translate(1026.75 422.375)"><text font-family="Arial" font-size="12px" font-style="normal" font-weight="normal" text-anchor="middle" fill="rgb(0,0,0)" fill-opacity="1" transform="translate(68.875 8)"><tspan dy="0.9166666666666666em" x="0">Process as needed</tspan></text></g><g transform="translate(1070.625 471.75)"><text font-family="Arial" font-size="12px" font-style="normal" font-weight="normal" text-anchor="middle" fill="rgb(0,0,0)" fill-opacity="1" transform="translate(25 8)"><tspan dy="0.9166666666666666em" x="0">End</tspan></text></g></g></svg>